<svg id="Layer_1" data-name="Layer 1" xmlns="http://www.w3.org/2000/svg" viewBox="0 0 821.66 385.52"><defs><style>.cls-1{fill:#1d1d1b;}</style></defs><title>NEOFRND-MonoBlack</title><path class="cls-1" d="M425.68,361c-32.48-.07-62.06-8.63-87.27-30-23.31-19.76-37.13-44.64-39-75.22-1.27-20.78-2.58-41.89,3.14-62.27,10.74-38.28,36.29-63.05,72.8-77.19,50.34-19.5,109.92-5,144.48,35.48,16.62,19.45,25.31,42.13,25.25,67.92,0,8,0,16,0,24.7h-22c0-6-.09-11.78,0-17.52.74-42.24-19.71-71.24-56.78-89.06-49.31-23.7-111.18-3.36-136,44.12-5.33,10.19-8.62,21-8.73,32.56-.19,17.67-2.46,35.56,1.9,52.9,9.68,38.44,36.39,59.74,73.17,70,10.3,2.88,21,3.45,31.71,3.41,38.6-.16,77.2-.07,116.28-.07v20.34" transform="translate(-11.08 -107.28)"/><path class="cls-1" d="M257.55,360.56c-7.71,0-14.62.17-22.65.17,0-32.2,0-63.71,0-95.22,0-15.53.5-31.08-.09-46.59-1.36-36-19.8-61.37-50.71-78.1-50.1-27.11-114.33-8.76-140.67,39.9a80.07,80.07,0,0,0-9.86,39c.14,44.7.07,89.4,0,134.1,0,2.12-.2,4.49-.2,6.84H11.08V332.59c0-35.46.36-70.92,0-106.38-.51-51.77,24.74-86.93,70.51-107.73,50-22.71,110.36-10,147.76,29.93,18.65,19.89,28,44,28.37,71" transform="translate(-11.08 -107.28)"/><path class="cls-1" d="M65.62,360.76c-7.74.25-14.66.08-22.06.08v-16.2c0-40.81.78-81.64-.21-122.42s30.77-77.54,74.69-83.8c33.65-4.79,63.06,3.81,86.57,29,12.76,13.68,20.1,30,20.13,49q.1,69.6,0,139.2c0,1.42,0,2.85,0,4.6H202.9v-12c0-41.06-1.13-82.15.36-123.15,1.27-35.2-24.41-59.23-50.63-65.63-39.48-9.64-78,12.28-86.16,48.81-2.26,10.2-.79,20.79-.81,31.2C65.56,279.5,65.62,319.73,65.62,360.76Z" transform="translate(-11.08 -107.28)"/><path class="cls-1" d="M417.53,331c-45.57-.8-87.39-35-86.48-86.88.23-13.09-1.15-26.29,1.83-39.2,6.92-30,25.41-49.79,53.74-61.1,36.65-14.63,81.43-4.19,107.07,25.4,12.34,14.26,18.5,31,19.17,49.79.28,8,0,16,0,24.56H491.38c0-7.13-.2-14.12,0-21.11,1.27-37.51-33.07-63.86-63.94-65.16-23.74-1-43.92,6-59.83,23.82-9.87,11.07-15.22,24.19-14.76,39.08.48,15.18-2.29,30.54,2.6,45.53,8.17,25,26.32,38.47,50.95,44.57,6.65,1.65,13.44,1.55,20.25,1.54q55.38-.1,110.77,0h7.27V331.4" transform="translate(-11.08 -107.28)"/><path class="cls-1" d="M97.44,361.3c-7.08,0-7.08-.18-22.32-.18,0-2.41.21-4.63.21-6.73,0-44,.57-87.92-.2-131.86-.61-34.28,28.22-54.32,51.92-56.13,35.3-2.69,63.17,18,66.24,49.65,1.55,15.88.33,32,.33,48.05,0,29.87.52,59.73.46,89.6,0,2.11,0,4.25,0,7-6.79,0-16,0-23.12,0,0-3.27,0-6.31,0-9.12-.08-43.23-.61-86.46.19-129.67.38-20.59-17.65-35.25-36-35.67C116,185.86,97.1,199.92,97.3,221.55c.42,44.2.13,88.39.14,132.59Z" transform="translate(-11.08 -107.28)"/><path class="cls-1" d="M481,244.39H459.19c0-7.3,0-14.46,0-21.62,0-18.34-10.45-31.37-28.64-35.77-16.61-4-34.25,3.71-42.09,18.48a19.13,19.13,0,0,0-2.4,6.74c-1.9,15.22-2.39,30.5.36,45.58,2.41,13.28,18.31,24.58,33.93,24.66,38.61.19,77.21.1,115.82.12h8.92c0,7-.22,14.05-.11,20-2.74,0-4.55-.06-6.7-.06-38.84,0-77.69.09-116.54-.06-25.25-.1-47.38-14.59-55.54-36.2A38.85,38.85,0,0,1,363.72,255c-1-17.16-3.23-34.6,2.27-51.27,10.2-31,48.85-46.37,80.61-32.41,22.5,9.89,34.79,26.91,34.45,52.12C481,230.17,481,236.92,481,244.39Z" transform="translate(-11.08 -107.28)"/><path class="cls-1" d="M448.76,243.77H395.47V225.09h53.42C448.89,230.76,448.76,236.73,448.76,243.77Z" transform="translate(-11.08 -107.28)"/><path class="cls-1" d="M801.31,235c0,17.83-.72,35.33-10.1,51.79-19.32,33.87-61,51.83-101.39,43.19-33.33-7.13-57-25.87-67.88-58.82-5.49-16.63-3.5-23.14-3.5-51.21.85-43.73,32.92-72.22,66.69-80.33,47.4-11.39,97.37,11.44,112.24,56.46C801.46,208.47,801.63,221.27,801.31,235Zm-23.06-.76c0-8,1.11-16.5-.82-24.63-6.49-27.38-24.75-43-51.08-50.07-34.19-9.18-72.22,11-82.39,43.71-4.71,15.13-2.64,15.43-2.64,46.22a51,51,0,0,0,3.3,18.45c10.45,26.3,30.88,40,58.19,42.69,27,2.63,49.32-7.31,65.51-29.75C778.49,266.76,778.25,250.7,778.25,234.24Z" transform="translate(-11.08 -107.28)"/><path class="cls-1" d="M650.94,237.28c0-1.88-.07-3.76,0-5.64.3-8.47-1.06-17,1.47-25.37,6.83-22.54,23.17-35.12,45.12-39.36,27.44-5.3,55.17,6.6,67.29,32.65a44,44,0,0,1,4,16.73c.65,15.89,2.74,32-2,47.46-8.41,27.4-37.7,42.9-65.62,38.65-23.7-3.61-41.2-15.92-48.83-39.76C649.74,254.32,650.94,245.84,650.94,237.28Zm95.39-2.73h0c0-5.1.12-10.21,0-15.3-.51-18.36-16.08-32.53-35.79-32.66-20.83-.12-36.44,13.09-37.12,31.82-.37,10.43-.38,20.89-.06,31.32.59,18.83,16.26,32.49,36.74,32.39,20.18-.1,35.82-14.31,36.26-33C746.43,244.27,746.33,239.41,746.33,234.55Z" transform="translate(-11.08 -107.28)"/><path class="cls-1" d="M832.72,234.68c0-5.34-.06-10.68,0-16,.37-28.4-10.62-52.2-29.74-72.52C764.21,105,697.48,96.72,648.71,122.35,618,138.49,597.35,162.88,589.16,197c-4,16.71-2,33.91-2,50.73,0,37.4,15.5,66.39,44.77,88.13,33.55,24.94,71.49,30.79,111.58,20.84,37-9.17,64.52-30.8,80.9-65.76C832.82,273,832.72,254.55,832.72,234.68Zm-37.19,60.65c-22.52,33.48-67.16,51.51-106.44,42.5-35-8-61.33-26.84-74.67-61.25a72.35,72.35,0,0,1-5-26.22c0-16.19-1.85-32.09,2-47.85,8.14-33.68,30.17-54.85,61.66-67.16,44.26-17.29,97.19-.34,123.23,39.2C807.56,191.67,812,210.41,812,230.33v8C812,259.3,807.26,277.89,795.53,295.33Z" transform="translate(-11.08 -107.28)"/><path class="cls-1" d="M189.18,413.58h33.5V424.9h-21.5v23.2h17v11.31h-17V492.8h-12Z" transform="translate(-11.08 -107.28)"/><path class="cls-1" d="M354.34,492.8l-8.47-32.7h-6v32.7H328.17V413.58h18.25q8.35,0,13.3,5.15t4.95,13.75v8.71a21.15,21.15,0,0,1-2.09,9.62,15.86,15.86,0,0,1-5.93,6.57l9.78,35.42Zm-14.51-44h6a7,7,0,0,0,5.28-1.93,7.45,7.45,0,0,0,1.87-5.43v-9.17a7.45,7.45,0,0,0-1.87-5.43,7,7,0,0,0-5.28-1.92h-6Z" transform="translate(-11.08 -107.28)"/><path class="cls-1" d="M472.16,413.58h13l15.06,53.19V413.58h11.6V492.8H499.38l-15.62-50.7v50.7h-11.6Z" transform="translate(-11.08 -107.28)"/><path class="cls-1" d="M617.6,413.58h18.52q8.48,0,13.5,5.15t5,13.75V473.9q0,8.61-5,13.75t-13.5,5.15H617.6Zm18,67.91a7.18,7.18,0,0,0,5.35-1.93,7.38,7.38,0,0,0,1.9-5.43V432.25a7.38,7.38,0,0,0-1.9-5.43,7.18,7.18,0,0,0-5.35-1.92h-6.14v56.59Z" transform="translate(-11.08 -107.28)"/></svg>